HIERARCHY
ROOT hip
{
  OFFSET 0 0 0
  CHANNELS 6 Xposition Yposition Zposition Zrotation Yrotation Xrotation
  JOINT abdomen
  {
    OFFSET 0 20.6881 -0.73152
    CHANNELS 3 Zrotation Xrotation Yrotation
    JOINT chest
    {
      OFFSET 0 11.7043 -0.48768
      CHANNELS 3 Zrotation Xrotation Yrotation
      JOINT neck
      {
        OFFSET 0 22.1894 -2.19456
        CHANNELS 3 Zrotation Xrotation Yrotation
        JOINT head
        {
          OFFSET -0.24384 7.07133 1.2192
          CHANNELS 3 Zrotation Xrotation Yrotation
          JOINT leftEye
          {
            OFFSET 4.14528 8.04674 8.04672
            CHANNELS 3 Zrotation Xrotation Yrotation
            End Site
            {
              OFFSET 1 0 0
            }
          }
          JOINT rightEye
          {
            OFFSET -3.6576 8.04674 8.04672
            CHANNELS 3 Zrotation Xrotation Yrotation
            End Site
            {
              OFFSET 1 0 0
            }
          }
        }
      }
      JOINT rCollar
      {
        OFFSET -2.68224 19.2634 -4.8768
        CHANNELS 3 Zrotation Xrotation Yrotation
        JOINT rShldr
        {
          OFFSET -8.77824 -1.95073 1.46304
          CHANNELS 3 Zrotation Xrotation Yrotation
          JOINT rForeArm
          {
            OFFSET -28.1742 -1.7115 0.48768
            CHANNELS 3 Zrotation Xrotation Yrotation
            JOINT rHand
            {
              OFFSET -22.5879 0.773209 7.07136
              CHANNELS 3 Zrotation Xrotation Yrotation
              JOINT rThumb1
              {
                OFFSET -1.2192 -0.487915 3.41376
                CHANNELS 3 Zrotation Xrotation Yrotation
                JOINT rThumb2
                {
                  OFFSET -3.37035 -0.52449 3.41376
                  CHANNELS 3 Zrotation Xrotation Yrotation
                  End Site
                  {
                    OFFSET -1.78271 -1.18214 1.43049
                  }
                }
              }
              JOINT rIndex1
              {
                OFFSET -7.75947 0.938293 5.60832
                CHANNELS 3 Zrotation Xrotation Yrotation
                JOINT rIndex2
                {
                  OFFSET -2.54057 -0.884171 1.56538
                  CHANNELS 3 Zrotation Xrotation Yrotation
                  End Site
                  {
                    OFFSET -1.62519 -0.234802 1.16502
                  }
                }
              }
              JOINT rMid1
              {
                OFFSET -8.24714 1.18213 3.41376
                CHANNELS 3 Zrotation Xrotation Yrotation
                JOINT rMid2
                {
                  OFFSET -3.10165 -0.590103 1.0647
                  CHANNELS 3 Zrotation Xrotation Yrotation
                  End Site
                  {
                    OFFSET -2.48547 -0.328903 0.83742
                  }
                }
              }
              JOINT rRing1
              {
                OFFSET -8.82822 0.546677 1.51678
                CHANNELS 3 Zrotation Xrotation Yrotation
                JOINT rRing2
                {
                  OFFSET -2.60934 -0.819778 -0.0198488
                  CHANNELS 3 Zrotation Xrotation Yrotation
                  End Site
                  {
                    OFFSET -2.33842 -0.294052 0.168128
                  }
                }
              }
              JOINT rPinky1
              {
                OFFSET -8.27202 -0.0477905 -0.4584
                CHANNELS 3 Zrotation Xrotation Yrotation
                JOINT rPinky2
                {
                  OFFSET -1.82734 -0.647385 -0.700984
                  CHANNELS 3 Zrotation Xrotation Yrotation
                  End Site
                  {
                    OFFSET -1.69225 -0.51767 -0.607171
                  }
                }
              }
            }
          }
        }
      }
      JOINT lCollar
      {
        OFFSET 2.68224 19.2634 -4.8768
        CHANNELS 3 Zrotation Xrotation Yrotation
        JOINT lShldr
        {
          OFFSET 8.77824 -1.95073 1.46304
          CHANNELS 3 Zrotation Xrotation Yrotation
          JOINT lForeArm
          {
            OFFSET 28.1742 -1.7115 0.48768
            CHANNELS 3 Zrotation Xrotation Yrotation
            JOINT lHand
            {
              OFFSET 22.5879 0.773209 7.07136
              CHANNELS 3 Zrotation Xrotation Yrotation
              JOINT lThumb1
              {
                OFFSET 1.2192 -0.487915 3.41376
                CHANNELS 3 Zrotation Xrotation Yrotation
                JOINT lThumb2
                {
                  OFFSET 3.37035 -0.52449 3.41376
                  CHANNELS 3 Zrotation Xrotation Yrotation
                  End Site
                  {
                    OFFSET 1.78271 -1.18214 1.43049
                  }
                }
              }
              JOINT lIndex1
              {
                OFFSET 7.75947 0.938293 5.60832
                CHANNELS 3 Zrotation Xrotation Yrotation
                JOINT lIndex2
                {
                  OFFSET 2.54057 -0.884171 1.56538
                  CHANNELS 3 Zrotation Xrotation Yrotation
                  End Site
                  {
                    OFFSET 1.62519 -0.234802 1.16502
                  }
                }
              }
              JOINT lMid1
              {
                OFFSET 8.24714 1.18213 3.41376
                CHANNELS 3 Zrotation Xrotation Yrotation
                JOINT lMid2
                {
                  OFFSET 3.10165 -0.590103 1.0647
                  CHANNELS 3 Zrotation Xrotation Yrotation
                  End Site
                  {
                    OFFSET 2.48547 -0.328903 0.83742
                  }
                }
              }
              JOINT lRing1
              {
                OFFSET 8.82822 0.546677 1.51678
                CHANNELS 3 Zrotation Xrotation Yrotation
                JOINT lRing2
                {
                  OFFSET 2.60934 -0.819778 -0.0198488
                  CHANNELS 3 Zrotation Xrotation Yrotation
                  End Site
                  {
                    OFFSET 2.33842 -0.294052 0.168128
                  }
                }
              }
              JOINT lPinky1
              {
                OFFSET 8.27202 -0.0477905 -0.4584
                CHANNELS 3 Zrotation Xrotation Yrotation
                JOINT lPinky2
                {
                  OFFSET 1.82734 -0.647385 -0.700984
                  CHANNELS 3 Zrotation Xrotation Yrotation
                  End Site
                  {
                    OFFSET 1.69225 -0.51767 -0.607171
                  }
                }
              }
            }
          }
        }
      }
    }
  }
  JOINT rButtock
  {
    OFFSET -8.77824 4.35084 1.2192
    CHANNELS 3 Zrotation Xrotation Yrotation
    JOINT rThigh
    {
      OFFSET 0 -1.70687 -2.19456
      CHANNELS 3 Zrotation Xrotation Yrotation
      JOINT rShin
      {
        OFFSET 0 -36.8199 0.73152
        CHANNELS 3 Zrotation Xrotation Yrotation
        JOINT rFoot
        {
          OFFSET 0.73152 -45.1104 -5.12064
          CHANNELS 3 Zrotation Xrotation Yrotation
          End Site
          {
            OFFSET -1.1221 -3.69964 12.103
          }
        }
      }
    }
  }
  JOINT lButtock
  {
    OFFSET 8.77824 4.35084 1.2192
    CHANNELS 3 Zrotation Xrotation Yrotation
    JOINT lThigh
    {
      OFFSET 0 -1.70687 -2.19456
      CHANNELS 3 Zrotation Xrotation Yrotation
      JOINT lShin
      {
        OFFSET 0 -36.8199 0.73152
        CHANNELS 3 Zrotation Xrotation Yrotation
        JOINT lFoot
        {
          OFFSET -0.73152 -45.1104 -5.12064
          CHANNELS 3 Zrotation Xrotation Yrotation
          End Site
          {
            OFFSET 1.1221 -3.69964 12.103
          }
        }
      }
    }
  }
}
MOTION
Frames:	5
Frame Time:	0.00833333
76.3425 83.8009 266.249 0.0 0.0 0.0 -2.0474 -0.0011334 -0.0554496 -0.564122 0.00677408 -0.0976596 2.09214e-14 0.0 1.06847e-15 6.16792e-14 3.18055e-15 3.30324e-15 -0.0 0.0 0.0 -0.0 0.0 0.0 1.03362e-14 6.71675e-17 6.4605e-16 2.19072e-13 1.48467e-15 1.37161e-14 3.70445e-12 -1.07085e-12 1.90833e-13 4.24361e-11 1.36061e-12 2.46493e-12 1.00099e-10 6.2517e-13 5.74408e-12 1.72856e-10 1.07821e-12 9.92174e-12 1.00106e-10 6.2816e-13 5.73136e-12 7.73091 5.47488 0.417314 1.00099e-10 6.2488e-13 5.74726e-12 2.90554 0.965183 0.102902 1.00111e-10 6.25476e-13 5.74329e-12 10.2786 0.731801 0.0259123 1.00093e-10 6.26172e-13 5.7568e-12 2.22167 -0.733487 -0.20892 1.02387e-14 6.61968e-17 3.97569e-16 2.12816e-13 1.37907e-15 1.17283e-14 3.70187e-12 1.1615e-12 2.00375e-13 4.24265e-11 -8.73261e-13 2.44903e-12 1.00075e-10 6.25301e-13 5.72818e-12 1.72836e-10 1.07821e-12 9.89709e-12 1.00073e-10 6.26172e-13 5.7409e-12 -7.73091 5.47488 -0.417314 1.00075e-10 6.25476e-13 5.73136e-12 -2.90554 0.965183 -0.102902 1.00067e-10 6.25377e-13 5.73136e-12 -10.2786 0.731801 -0.0259123 1.00078e-10 6.26569e-13 5.725e-12 -2.22167 -0.733487 0.20892 -2.03217e-16 0.0 -3.88251e-19 -1.05795 -1.92715 0.000467727 -0.00901493 -2.07859 -0.0743084 -0.496222 3.99824 0.137975 2.03217e-16 0.0 3.88251e-19 -2.07382 -7.46837 0.205234 -0.00444035 7.95871 -0.116964 0.549103 -0.497799 -0.0519029
72.2381 88.421 225.135 -170.636 7.0056 141.454 -3.63319 17.7904 1.95804 -1.31969 3.76154 0.277977 -1.69624 2.3153 1.08182 1.75893 -4.69928 2.71015 -0.0 0.0 0.0 -0.0 0.0 0.0 4.62881e-14 7.11149e-14 7.60021e-14 2.57887 -14.9786 28.2792 -23.471 -21.3408 14.7979 0.0787434 6.23783 0.858081 2.565e-09 9.37581e-10 -1.09562e-09 4.4124e-09 1.56103e-09 -1.9375e-09 2.56501e-09 9.3759e-10 -1.09563e-09 7.73091 5.47488 0.417314 2.565e-09 9.37589e-10 -1.09561e-09 2.90554 0.965183 0.102902 2.56501e-09 9.37584e-10 -1.09562e-09 10.2786 0.731801 0.0259123 2.565e-09 9.37584e-10 -1.09561e-09 2.22167 -0.733487 -0.20892 4.61894e-14 7.11132e-14 7.57071e-14 -3.21973 -8.04512 -13.9974 24.2351 -22.0847 -14.6303 -0.0498192 4.96273 -0.688108 -2.14107e-09 1.08769e-09 1.32703e-09 -3.68196e-09 1.8397e-09 2.32596e-09 -2.14108e-09 1.08769e-09 1.32704e-09 -7.73091 5.47488 -0.417314 -2.14107e-09 1.08769e-09 1.32703e-09 -2.90554 0.965183 -0.102902 -2.14108e-09 1.08769e-09 1.32703e-09 -10.2786 0.731801 -0.0259123 -2.14107e-09 1.08769e-09 1.32702e-09 -2.22167 -0.733487 0.20892 -2.03217e-16 0.0 -3.88251e-19 -2.5088 1.96001 2.89177 9.45436 33.3116 -6.49681 -2.12354 -22.5452 -4.95871 2.03217e-16 0.0 3.88251e-19 -7.82179 -27.4254 8.02821 15.223 36.9089 -9.53808 1.62953 -10.6867 -1.66204
72.6529 88.3444 222.913 -170.627 7.0163 140.877 -7.02925 36.5484 4.95544 -2.15502 7.77858 0.680928 -3.57127 4.76779 2.23683 4.08569 -9.63862 5.64146 -0.0 0.0 0.0 -0.0 0.0 0.0 8.56574e-14 1.51902e-13 1.61118e-13 18.9377 -18.6546 61.1004 -34.0183 -38.7397 37.4359 -0.0462322 12.8604 1.80433 5.34881e-09 1.99067e-09 -2.34039e-09 9.20046e-09 3.31451e-09 -4.13834e-09 5.34882e-09 1.99069e-09 -2.3404e-09 7.73091 5.47488 0.417314 5.34882e-09 1.99069e-09 -2.34038e-09 2.90554 0.965183 0.102902 5.34882e-09 1.99068e-09 -2.3404e-09 10.2786 0.731801 0.0259123 5.34881e-09 1.99068e-09 -2.34039e-09 2.22167 -0.733487 -0.20892 8.55577e-14 1.51899e-13 1.6077e-13 -10.8449 -14.8972 -29.5693 34.9744 -40.1864 -37.6662 0.0289416 10.1733 -1.42828 -4.67241e-09 2.30781e-09 2.81443e-09 -8.0359e-09 3.90317e-09 4.93338e-09 -4.67242e-09 2.30781e-09 2.81443e-09 -7.73091 5.47488 -0.417314 -4.67241e-09 2.30781e-09 2.81442e-09 -2.90554 0.965183 -0.102902 -4.67241e-09 2.30781e-09 2.81443e-09 -10.2786 0.731801 -0.0259123 -4.6724e-09 2.30781e-09 2.81442e-09 -2.22167 -0.733487 0.20892 -2.03217e-16 0.0 -3.88251e-19 -4.57585 6.12284 6.09623 41.683 68.0948 -31.3531 -11.5256 -49.7983 -15.0162 2.03217e-16 0.0 3.88251e-19 -5.5549 -47.2334 21.2932 53.4307 63.4609 -36.8676 2.14007 -21.1222 -3.55282
73.073 88.3088 220.719 -170.598 7.002 140.435 -12.6326 53.0224 9.5109 -2.98085 11.2694 1.04766 -5.35251 6.93595 3.26675 6.63996 -13.9698 8.35181 -0.0 0.0 0.0 -0.0 0.0 0.0 1.18192e-13 2.1321e-13 2.26714e-13 34.3913 -6.40531 84.7275 -30.8818 -43.3544 65.1575 -0.350638 18.6962 2.70166 7.4948e-09 2.81149e-09 -3.29834e-09 1.28915e-08 4.68093e-09 -5.83234e-09 7.49481e-09 2.81151e-09 -3.29834e-09 7.73091 5.47488 0.417314 7.49482e-09 2.81152e-09 -3.29833e-09 2.90554 0.965183 0.102902 7.49481e-09 2.8115e-09 -3.29834e-09 10.2786 0.731801 0.0259123 7.4948e-09 2.8115e-09 -3.29833e-09 2.22167 -0.733487 -0.20892 1.18091e-13 2.13207e-13 2.26326e-13 -20.7575 -18.3345 -44.3492 31.0271 -44.8421 -66.6255 0.218622 14.8795 -2.12797 -6.62336e-09 3.26182e-09 3.96964e-09 -1.13915e-08 5.51694e-09 6.95808e-09 -6.62338e-09 3.26183e-09 3.96963e-09 -7.73091 5.47488 -0.417314 -6.62337e-09 3.26182e-09 3.96963e-09 -2.90554 0.965183 -0.102902 -6.62336e-09 3.26182e-09 3.96964e-09 -10.2786 0.731801 -0.0259123 -6.62336e-09 3.26183e-09 3.96962e-09 -2.22167 -0.733487 0.20892 -2.03217e-16 0.0 -3.88251e-19 -6.59589 9.62946 8.79417 150.798 68.375 -131.079 -43.5468 -70.1951 -45.6116 2.03217e-16 0.0 3.88251e-19 11.1483 -60.004 45.6746 133.617 66.6578 -104.001 1.82968 -30.957 -5.59478
73.4888 88.2267 218.598 -170.682 6.8775 140.054 -19.1845 64.1416 14.9343 -3.6724 13.4462 1.30479 -6.70906 8.40305 3.96311 8.78256 -16.9038 10.2966 -0.0 0.0 0.0 -0.0 0.0 0.0 1.33639e-13 2.2582e-13 2.43511e-13 41.947 8.30003 94.6829 -28.2317 -38.9431 82.048 -0.669193 22.5819 3.35082 8.04625e-09 3.05163e-09 -3.5392e-09 1.38399e-08 5.07968e-09 -6.25923e-09 8.04625e-09 3.05165e-09 -3.5392e-09 7.73091 5.47488 0.417314 8.04626e-09 3.05166e-09 -3.53918e-09 2.90554 0.965183 0.102902 8.04625e-09 3.05164e-09 -3.5392e-09 10.2786 0.731801 0.0259123 8.04624e-09 3.05164e-09 -3.53919e-09 2.22167 -0.733487 -0.20892 1.33536e-13 2.25819e-13 2.43114e-13 -28.8669 -18.7413 -54.9367 28.071 -40.0222 -83.9615 0.430765 18.3325 -2.66911 -7.12337e-09 3.55055e-09 4.29439e-09 -1.22515e-08 6.00649e-09 7.52601e-09 -7.12339e-09 3.55056e-09 4.29438e-09 -7.73091 5.47488 -0.417314 -7.12338e-09 3.55056e-09 4.29438e-09 -2.90554 0.965183 -0.102902 -7.12337e-09 3.55055e-09 4.29439e-09 -10.2786 0.731801 -0.0259123 -7.12336e-09 3.55056e-09 4.29438e-09 -2.22167 -0.733487 0.20892 -2.03217e-16 0.0 -3.88251e-19 -7.54694 11.623 10.0778 178.32 48.0685 -150.863 -100.643 -72.9557 -100.731 2.03217e-16 0.0 3.88251e-19 31.4592 -61.7874 70.4411 170.37 53.0533 -129.85 0.761196 -39.3816 -7.48798
